<mxfile host="app.diagrams.net" modified="2024-03-07T07:45:28.790Z" agent="Mozilla/5.0 (Windows NT 10.0; Win64; x64) AppleWebKit/537.36 (KHTML, like Gecko) Chrome/117.0.0.0 Safari/537.36" etag="CtGMglKRJmwdD7TudITQ" version="23.0.1" type="github">
  <diagram name="第 1 页" id="iCkvdiVLpB4I31Y2X43i">
    <mxGraphModel dx="1425" dy="747" grid="1" gridSize="10" guides="1" tooltips="1" connect="1" arrows="1" fold="1" page="1" pageScale="1" pageWidth="827" pageHeight="1169" math="0" shadow="0">
      <root>
        <mxCell id="0" />
        <mxCell id="1" parent="0" />
        <mxCell id="E0sM9KQMUQ3SrVWNfc7b-4" value="" style="edgeStyle=orthogonalEdgeStyle;rounded=0;orthogonalLoop=1;jettySize=auto;html=1;" edge="1" parent="1" source="E0sM9KQMUQ3SrVWNfc7b-2" target="E0sM9KQMUQ3SrVWNfc7b-3">
          <mxGeometry relative="1" as="geometry" />
        </mxCell>
        <mxCell id="E0sM9KQMUQ3SrVWNfc7b-5" value="Text" style="edgeLabel;html=1;align=center;verticalAlign=middle;resizable=0;points=[];" vertex="1" connectable="0" parent="E0sM9KQMUQ3SrVWNfc7b-4">
          <mxGeometry x="-0.08" y="-1" relative="1" as="geometry">
            <mxPoint as="offset" />
          </mxGeometry>
        </mxCell>
        <mxCell id="E0sM9KQMUQ3SrVWNfc7b-6" value="/configs/web/advert/{code}" style="edgeLabel;html=1;align=center;verticalAlign=middle;resizable=0;points=[];" vertex="1" connectable="0" parent="E0sM9KQMUQ3SrVWNfc7b-4">
          <mxGeometry x="-0.12" y="-3" relative="1" as="geometry">
            <mxPoint as="offset" />
          </mxGeometry>
        </mxCell>
        <mxCell id="E0sM9KQMUQ3SrVWNfc7b-2" value="进入小程序&lt;br&gt;信息流/瀑布流页面" style="rounded=1;whiteSpace=wrap;html=1;" vertex="1" parent="1">
          <mxGeometry x="90" y="30" width="120" height="60" as="geometry" />
        </mxCell>
        <mxCell id="E0sM9KQMUQ3SrVWNfc7b-29" value="" style="edgeStyle=orthogonalEdgeStyle;rounded=0;orthogonalLoop=1;jettySize=auto;html=1;" edge="1" parent="1" source="E0sM9KQMUQ3SrVWNfc7b-3" target="E0sM9KQMUQ3SrVWNfc7b-27">
          <mxGeometry relative="1" as="geometry" />
        </mxCell>
        <mxCell id="E0sM9KQMUQ3SrVWNfc7b-3" value="请求广告管理组件信息" style="rounded=1;whiteSpace=wrap;html=1;" vertex="1" parent="1">
          <mxGeometry x="450" y="30" width="120" height="60" as="geometry" />
        </mxCell>
        <mxCell id="E0sM9KQMUQ3SrVWNfc7b-21" style="edgeStyle=orthogonalEdgeStyle;rounded=0;orthogonalLoop=1;jettySize=auto;html=1;entryX=0.5;entryY=0;entryDx=0;entryDy=0;" edge="1" parent="1" source="E0sM9KQMUQ3SrVWNfc7b-12" target="E0sM9KQMUQ3SrVWNfc7b-24">
          <mxGeometry relative="1" as="geometry">
            <mxPoint x="510" y="340" as="targetPoint" />
          </mxGeometry>
        </mxCell>
        <mxCell id="E0sM9KQMUQ3SrVWNfc7b-33" value="/goods-list/web/recommend/product" style="edgeLabel;html=1;align=center;verticalAlign=middle;resizable=0;points=[];" vertex="1" connectable="0" parent="E0sM9KQMUQ3SrVWNfc7b-21">
          <mxGeometry x="-0.1556" y="-2" relative="1" as="geometry">
            <mxPoint as="offset" />
          </mxGeometry>
        </mxCell>
        <mxCell id="E0sM9KQMUQ3SrVWNfc7b-30" value="" style="edgeStyle=orthogonalEdgeStyle;rounded=0;orthogonalLoop=1;jettySize=auto;html=1;" edge="1" parent="1" source="E0sM9KQMUQ3SrVWNfc7b-7" target="E0sM9KQMUQ3SrVWNfc7b-27">
          <mxGeometry relative="1" as="geometry" />
        </mxCell>
        <mxCell id="E0sM9KQMUQ3SrVWNfc7b-7" value="信息流或瀑布流的配置数据&lt;br&gt;&lt;br&gt;都配置优先取信息流&lt;br&gt;&lt;div style=&quot;&quot;&gt;&lt;br&gt;&lt;/div&gt;" style="rounded=1;whiteSpace=wrap;html=1;fillColor=#dae8fc;strokeColor=#6c8ebf;align=left;" vertex="1" parent="1">
          <mxGeometry x="230" y="130" width="120" height="100" as="geometry" />
        </mxCell>
        <mxCell id="E0sM9KQMUQ3SrVWNfc7b-12" value="信息流展示组件&lt;br&gt;请求接口" style="rounded=1;whiteSpace=wrap;html=1;" vertex="1" parent="1">
          <mxGeometry x="450" y="300" width="120" height="60" as="geometry" />
        </mxCell>
        <mxCell id="E0sM9KQMUQ3SrVWNfc7b-24" value="渲染请求结果" style="whiteSpace=wrap;html=1;" vertex="1" parent="1">
          <mxGeometry x="450" y="450" width="120" height="60" as="geometry" />
        </mxCell>
        <mxCell id="E0sM9KQMUQ3SrVWNfc7b-28" value="" style="edgeStyle=orthogonalEdgeStyle;rounded=0;orthogonalLoop=1;jettySize=auto;html=1;" edge="1" parent="1" source="E0sM9KQMUQ3SrVWNfc7b-27" target="E0sM9KQMUQ3SrVWNfc7b-12">
          <mxGeometry relative="1" as="geometry" />
        </mxCell>
        <mxCell id="E0sM9KQMUQ3SrVWNfc7b-27" value="配置信息&lt;br&gt;" style="rounded=1;whiteSpace=wrap;html=1;" vertex="1" parent="1">
          <mxGeometry x="450" y="150" width="120" height="60" as="geometry" />
        </mxCell>
        <mxCell id="E0sM9KQMUQ3SrVWNfc7b-32" value="" style="edgeStyle=orthogonalEdgeStyle;rounded=0;orthogonalLoop=1;jettySize=auto;html=1;" edge="1" parent="1" source="E0sM9KQMUQ3SrVWNfc7b-31" target="E0sM9KQMUQ3SrVWNfc7b-12">
          <mxGeometry relative="1" as="geometry" />
        </mxCell>
        <mxCell id="E0sM9KQMUQ3SrVWNfc7b-31" value="请求参数增加&lt;br&gt;商品名称类型&lt;br&gt;商品图片类型" style="shape=ext;double=1;rounded=1;whiteSpace=wrap;html=1;fillColor=#fff2cc;strokeColor=#d6b656;" vertex="1" parent="1">
          <mxGeometry x="230" y="290" width="120" height="80" as="geometry" />
        </mxCell>
      </root>
    </mxGraphModel>
  </diagram>
</mxfile>
